<svg height="109" viewBox="0 0 361 109" width="361" xmlns="http://www.w3.org/2000/svg" xmlns:xlink="http://www.w3.org/1999/xlink"><linearGradient id="a" x1="4.982023%" x2="95.349816%" y1="96.638877%" y2="3.3426%"><stop offset=".21" stop-color="#4a4f54"/><stop offset=".42" stop-color="#4a4f54" stop-opacity="0"/><stop offset=".59" stop-color="#4a4f54" stop-opacity="0"/><stop offset=".81" stop-color="#4a4f54"/></linearGradient><g fill="none"><path d="m12.84 108.500014c3.5915329.004379 7.0061759-1.558688 9.35-4.280014l84.42-97.93c-2.251937-3.60278291-6.201322-5.79000824-10.45-5.79000824-3.5714675-.00412039-6.9686732 1.54304958-9.31 4.24000824l-84.85 97.35c2.16907026 3.958389 6.32628019 6.416666 10.84 6.410014z" fill="url(#a)"/><g fill="#4a4f54"><path d="m12.84 108.5c1.9687618 0 3.909106-.469782 5.66-1.37v-81.77l65.58 78.7c2.3494257 2.81273 5.8251328 4.438878 9.49 4.44h2.59c6.812908-.005514 12.334486-5.527092 12.34-12.34v-83.32c-.005514-6.81290841-5.527092-12.3344857-12.34-12.34-1.9532971.00290421-3.8785064.46536552-5.62 1.35v81.79l-65.62-78.7c-2.3494257-2.81273026-5.8251328-4.43887775-9.49-4.44h-2.59c-6.81290841.0055143-12.3344857 5.52709159-12.34 12.34v83.32c.0055143 6.812908 5.52709159 12.334486 12.34 12.34z"/><path d="m189.71 28.25v52.5c-.005386.4119621-.338038.7446142-.75.75h-5.51c-2.54654.0019837-4.919633-1.2900332-6.3-3.43l-24.78-38.3.85 19.13v21.85c-.005386.4119621-.338038.7446142-.75.75h-7.22c-.411962-.0053858-.744614-.3380379-.75-.75v-52.5c.005386-.4119621.338038-.7446142.75-.75h5.43c2.543204.0013526 4.913413 1.2880371 6.3 3.42l24.78 38.24-.76-19.06v-21.85c0-.4142136.335786-.75.75-.75h7.25c.396269.0261028.705633.3528965.71.75z"/><path d="m263.51 81.5h-7.64c-.242219-.0022915-.468419-.121427-.607329-.3198697-.13891-.1984426-.173425-.4517574-.092671-.6801303l20.23-52.28c.170898-.4312881.586104-.7160005 1.05-.72h9.55c.463896.0039995.879102.2887119 1.05.72l20.23 52.26c.080754.2283729.046239.4816877-.092671.6801303-.13891.1984427-.36511.3175782-.607329.3198697h-7.58c-.312915.001423-.594718-.1890916-.71-.48l-16.35-43c-.107656-.2966134-.389454-.4941192-.705-.4941192s-.597344.1975058-.705.4941192l-16.31 43c-.108772.2987792-.392042.498265-.71.5z"/><path d="m360.34 80.29-15.18-19.39c8.57-1.62 13.58-7.4 13.58-16.27 0-10.19-6.63-17.13-18.36-17.13h-21.17c-.618559 0-1.120007.5014411-1.120007 1.12-.002648 1.9112908.75475 3.745209 2.105299 5.0976345 1.35055 1.3524255 3.183415 2.1123673 5.094708 2.1123655h14.17c7.09 0 10.49 3.63 10.49 8.87s-3.32 9-10.49 9h-20.25c-.620173.0054885-1.120007.5098027-1.120007 1.13v26c0 .4142136.335793.75.750007.75h7.22c.411962-.0053858.744614-.3380379.75-.75v-19.46h8.33l13.17 17.19c1.429901 1.8647186 3.650185 2.9526577 6 2.94h5.48c.278712-.0154364.525791-.1843813.6413-.4385001.115508-.2541188.080332-.5513615-.0913-.7714999z"/><path d="m240.67 27.5h-33.5c-.552285 0-1 .4477153-1 1 0 4.0482472 3.281753 7.3300686 7.33 7.3300686h27.17c.199733.0026492.392082-.0754953.533328-.2167411.141245-.1412457.21939-.3335943.216741-.5333275v-6.83c0-.4142136-.335855-.75-.750069-.75zm0 45.67h-25c-.411962-.0053858-.744614-.3380379-.75-.75v-13.54c0-.4142136.335786-.75.75-.75h23.11c.414214 0 .75-.3357864.75-.75v-6.84c0-.4142136-.335786-.75-.75-.75h-31.49c-.620173.0054885-1.120045.5098027-1.120045 1.13v29.45c-.002623.2987713.114198.5862235.324529.798432.21033.2122085.496733.331568.795516.331568h33.38c.414214 0 .750069-.3357864.750069-.75v-6.83c.002649-.1997332-.075496-.3920818-.216741-.5333275-.141246-.1412458-.333595-.2193903-.533328-.2166725z"/></g></g></svg>